<?xml version="1.0" standalone="no"?><!DOCTYPE svg PUBLIC "-//W3C//DTD SVG 1.1//EN" "http://www.w3.org/Graphics/SVG/1.1/DTD/svg11.dtd"><svg class="icon" height="512" viewBox="0 0 1194 1024" version="1.1" xmlns="http://www.w3.org/2000/svg"><path d="M591.735467 41.540267c-0.648533 0.853333-1.399467 2.082133-1.6384 2.730666-0.375467 1.058133-0.648533 1.2288-3.345067 2.048-3.413333 1.024-13.1072 4.608-17.749333 6.519467-25.2928 10.478933-50.9952 26.9312-77.653334 49.7664-10.24 8.772267-24.4736 21.777067-30.481066 27.8528l-2.4576 2.525867-0.512 9.693866c-0.273067 5.358933-0.887467 16.622933-1.365334 25.088-0.887467 16.5888-1.501867 30.0032-1.6384 35.601067l-0.068266 3.515733-6.485334 2.6624c-20.5824 8.362667-39.799467 18.090667-46.933333 23.688534-1.1264 0.887467-2.1504 1.8432-2.2528 2.082133-0.1024 0.273067 0.853333 2.3552 2.082133 4.676267 5.802667 10.752 18.670933 38.638933 22.528 48.8448l0.580267 1.604266-5.632 10.513067c-14.336 26.692267-24.439467 46.3872-30.6176 59.665067-3.345067 7.099733-15.5648 34.372267-17.851733 39.765333-0.8192 1.9456-2.56 4.061867-4.1984 5.12l-1.536 0.955733 4.369066 3.003734c11.9808 8.226133 28.16 19.6608 36.0448 25.4976l5.0176 3.720533 16.384 0.170667 16.384 0.2048 3.345067 2.9696c1.809067 1.604267 3.754667 3.447467 4.266667 4.061866l0.9216 1.1264v14.1312c0 7.7824-0.1024 14.1312-0.2048 14.1312s-13.448533-9.352533-29.5936-20.753066c-16.1792-11.434667-64.273067-45.329067-106.9056-75.332267-42.5984-30.0032-87.1424-61.371733-98.9184-69.700267-26.589867-18.773333-24.8832-17.6128-27.613867-18.6368-2.833067-1.092267-2.901333-1.1264-10.171733-6.5536-6.724267-5.051733-19.080533-13.960533-64.512-46.626133-17.373867-12.4928-42.564267-30.685867-55.978667-40.448-13.4144-9.762133-24.644267-17.885867-24.917333-18.0224-0.8192-0.443733 23.586133 23.825067 32.9728 32.768 12.253867 11.6736 13.277867 12.5952 56.968533 49.629867 21.777067 18.466133 40.618667 34.440533 41.847467 35.5328l2.2528 1.979733 0.4096 4.027733c1.672533 15.7696 8.157867 61.064533 12.1856 84.855467 5.051733 29.969067 26.282667 114.141867 37.239466 147.524267 9.659733 29.4912 29.832533 83.933867 41.335467 111.616 9.4208 22.6304 16.042667 37.239467 20.3776 44.885333l1.4336 2.56 0.4096 7.850667c1.092267 21.4016 2.321067 34.133333 3.7888 39.082666 2.594133 8.669867 10.274133 26.350933 19.2512 44.270934 4.539733 9.079467 2.798933 7.236267 14.404267 15.394133l6.894933 4.846933 0.238933 1.604267c1.262933 8.669867 9.1136 30.6176 13.243734 37.034667 4.437333 6.929067 14.1312 14.779733 37.956266 30.651733 5.461333 3.618133 11.264 7.5776 12.9024 8.8064l3.003734 2.184533 1.3312-0.887466c2.184533-1.4336 7.2704-5.8368 8.567466-7.441067 2.730667-3.345067 5.4272-8.192 5.4272-9.796267 0-0.443733-1.297067-1.706667-3.652266-3.652266-13.5168-11.025067-32.256-27.2384-42.427734-36.693334-3.037867-2.833067-4.7104-4.096-7.441066-5.563733-3.925333-2.1504-9.728-5.597867-11.9808-7.133867l-1.501867-1.024 1.501867-0.477866c0.8192-0.273067 2.082133-0.955733 2.7648-1.501867l1.262933-0.989867 3.9936 2.116267 3.959467 2.082133 4.846933-0.238933c2.628267-0.1024 6.0416-0.3072 7.543467-0.4096l2.730666-0.170667 8.362667 8.055467c9.6256 9.284267 28.023467 26.589867 32.5632 30.6176 5.188267 4.573867 8.157867 7.645867 9.3184 9.557333 1.399467 2.321067 2.286933 5.666133 1.979733 7.543467-0.273067 1.7408-1.672533 4.9152-2.594133 5.905067l-0.682667 0.7168 3.1744 2.048c9.1136 5.905067 31.8464 19.626667 35.498667 21.469866 5.154133 2.594133 7.68 2.286933 9.386667-1.194666l0.955733-1.911467-0.068267-7.168c0-3.959467-0.750933-20.3776-1.604266-36.522667-1.9456-36.727467-2.3552-45.431467-2.184534-46.933333 0.068267-0.9216 1.536 3.037867 6.382934 17.408 3.447467 10.24 6.587733 19.2512 6.929066 20.0704 0.341333 0.8192 2.423467 3.959467 4.642134 6.997333 9.5232 13.0048 30.651733 42.939733 37.6832 53.282134l4.369066 6.4512v-62.737067l-9.250133-11.434667c-13.653333-16.861867-32.256-40.106667-32.836267-41.028266-0.3072-0.4096-1.399467-4.027733-2.4576-7.953067-1.058133-3.959467-6.826667-24.849067-12.8-46.421333-13.653333-49.2544-16.384-59.2896-16.384-60.177067 0-0.375467 1.1264-3.652267 2.525867-7.2704 1.365333-3.652267 3.3792-9.1136 4.471467-12.1856l1.979733-5.5296h2.833067c1.570133 0 2.8672 0.1024 2.8672 0.2048 0 0.136533-2.082133 5.802667-4.642134 12.629333l-4.608 12.424534 0.7168 2.628266c0.4096 1.467733 3.720533 13.141333 7.338667 25.9072 3.652267 12.8 10.24 36.5568 14.677333 52.8384l8.0896 29.559467 6.8608 8.2944c3.7888 4.539733 12.526933 15.189333 19.421867 23.620267 6.8608 8.465067 13.243733 16.0768 14.1312 16.9984 2.013867 2.013867 3.6864 2.56 4.9152 1.672533 1.2288-0.9216 1.6384-1.9456 2.594133-6.621867 1.570133-7.645867 3.208533-10.274133 16.452267-26.146133 9.966933-11.946667 21.162667-24.2688 23.688533-26.077867 0.9216-0.648533 1.058133-0.648533 1.570134-0.170666 0.477867 0.512 0.375467 0.7168-1.2288 2.423466l-1.774934 1.877334v2.6624c0 3.549867-0.682667 6.0416-2.730666 10.171733-4.027733 8.0896-10.0352 14.609067-22.2208 24.1664-4.266667 3.345067-8.021333 6.382933-8.362667 6.792533-0.750933 0.8192-1.3312 1.160533 7.7824-4.608 7.2704-4.608 6.8608-4.4032 7.918933-3.9936 0.580267 0.2048 1.2288 0.2048 1.911467-0.068266 1.024-0.341333 1.160533-0.273067 2.1504 0.9216 0.6144 0.7168 1.365333 1.706667 1.672533 2.184533l0.580267 0.9216-2.7648 3.3792c-1.536 1.877333-7.714133 10.001067-13.7216 18.090667-16.827733 22.493867-16.315733 21.777067-16.110933 22.528 0.6144 2.389333 5.3248 38.673067 5.3248 40.96 0 1.9456 0.443733 1.911467 2.082133-0.1024 0.853333-1.058133 3.7888-4.4032 6.485333-7.3728 2.696533-3.003733 5.870933-6.5536 7.0656-7.850667 1.160533-1.3312 2.2528-2.4576 2.423467-2.525867 0.3072-0.1024 1.365333 4.9152 4.5056 21.0944 1.1264 5.905067 2.9696 14.882133 4.096 19.968 1.1264 5.051733 2.321067 10.888533 2.696533 12.9024 0.512 3.106133 0.8192 3.9936 1.911467 5.632 2.116267 3.242667 5.700267 7.9872 8.260267 10.922667 1.467733 1.706667 2.491733 3.242667 2.628266 3.8912 0.477867 2.389333 0.648533 2.56 0.887467 0.955733 0.512-3.208533 0.375467-4.266667-0.853333-6.109866-2.525867-3.720533-3.447467-8.157867-2.935467-13.7216 0.341333-3.447467 1.7408-10.274133 8.840533-42.871467l4.369067-20.206933 1.809067-2.082134c1.604267-1.8432 1.7408-2.116267 1.297066-2.6624-0.273067-0.3072-1.604267-1.877333-3.003733-3.4816l-2.491733-2.8672 1.7408-1.570133 1.7408-1.536-2.013867-2.1504c-1.1264-1.194667-2.696533-3.208533-3.549867-4.437333l-1.570133-2.286934-0.512-7.168c-1.3312-18.158933-2.8672-48.128-2.491733-48.503466 0.341333-0.3072 38.8096-0.955733 41.642666-0.682667l2.6624 0.273067 1.8432 2.7648c4.369067 6.587733 11.537067 22.1184 15.1552 32.904533 4.437333 13.175467 6.826667 42.939733 5.154134 64.273067-0.7168 9.489067-2.833067 24.302933-5.2224 36.864-1.6384 8.635733-1.706667 9.079467-0.7168 6.144 1.194667-3.618133 3.652267-13.277867 5.4272-21.504 1.297067-6.0416 7.031467-34.542933 7.031466-35.054934 0-0.1024 0.238933-0.068267 0.546134 0.034134 1.024 0.4096 18.432 13.038933 26.248533 19.0464l0.750933 0.6144 4.369067-6.587734c2.423467-3.584 10.615467-15.701333 18.193067-26.862933 30.9248-45.397333 27.613867-40.277333 30.549333-47.445333 1.4336-3.4816 3.584-8.704 4.778667-11.639467l2.184533-5.290667 1.604267-19.114666c0.887467-10.478933 1.979733-23.005867 2.423466-27.784534l0.8192-8.704 2.3552-5.461333c1.297067-3.003733 4.096-9.9328 6.212267-15.36 8.157867-20.957867 11.3664-28.9792 15.121067-38.058667 8.226133-19.694933 20.241067-47.684267 22.664533-52.736l0.955733-2.048 3.754667-1.604266c2.082133-0.887467 9.284267-3.6864 16.042667-6.2464s13.994667-5.3248 16.0768-6.178134l3.7888-1.536 0.238933-13.892266c0.273067-16.861867 0.8192-39.560533 1.058133-43.178667l0.136534-2.628267-1.262934-0.785066c-0.682667-0.443733-4.5056-2.594133-8.465066-4.778667-8.6016-4.7104-13.1072-7.406933-15.0528-8.977067l-1.4336-1.194666-1.3312 1.809066c-0.7168 0.989867-2.013867 2.798933-2.8672 4.027734l-1.570134 2.218666-6.109866 2.525867c-19.319467 8.021333-41.8816 17.271467-58.88 24.098133-10.6496 4.3008-19.319467 7.850667-19.2512 7.918934 0.136533 0.136533 38.638933-12.765867 39.560533-13.243734 0.580267-0.341333 0.6144-0.273067 0.4096 0.443734-0.136533 0.4096-1.3312 2.8672-2.628267 5.393066-1.3312 2.525867-4.949333 9.5232-8.021333 15.530667-8.738133 16.896-7.441067 14.882133-10.205867 15.735467-1.297067 0.4096-11.8784 3.310933-23.517866 6.4512-22.050133 5.9392-35.669333 9.728-41.0624 11.4688-1.7408 0.546133-3.310933 0.989867-3.4816 0.989866-0.341333 0-4.778667-5.768533-8.840534-11.537066l-2.491733-3.515734 1.672533-1.9456c0.887467-1.058133 2.935467-3.413333 4.5056-5.188266 1.570133-1.774933 3.2768-3.6864 3.754667-4.232534 2.1504-2.4576-9.762133 7.714133-20.7872 17.749334-13.0048 11.810133-39.355733 35.191467-42.359467 37.5808-0.477867 0.375467-2.184533-0.9216-11.434666-8.669867-11.8784-9.9328-32.904533-27.784533-38.877867-32.9728l-3.754667-3.2768-7.338666 7.304533c-4.027733 4.027733-7.543467 7.338667-7.816534 7.338667-0.273067 0-7.7824-1.706667-16.725333-3.7888-19.080533-4.437333-36.898133-8.430933-43.383467-9.659733-2.525867-0.512-4.949333-0.989867-5.358933-1.058134-0.477867-0.1024-1.399467-1.297067-2.8672-3.822933-1.160533-2.048-6.109867-10.24-10.9568-18.2272-4.846933-8.021333-8.8064-14.711467-8.8064-14.882133s0.7168-1.024 1.6384-1.877334l1.604267-1.604266 4.437333 1.7408c12.049067 4.642133 59.357867 22.254933 76.936533 28.637866 5.495467 2.013867 9.966933 3.822933 10.888534 4.471467 4.744533 3.2768-1.672533-2.218667-49.2544-42.222933-37.922133-31.880533-48.366933-40.686933-72.192-60.791467-10.990933-9.284267-69.0176-58.094933-73.8304-62.122667-0.887467-0.750933-0.955733-0.955733-0.853334-3.003733l0.1024-2.218667 16.213334 13.687467c8.9088 7.543467 25.361067 21.469867 36.522666 30.958933 11.1616 9.489067 44.202667 37.512533 73.386667 62.293334 88.4736 75.093333 118.203733 100.386133 125.883733 107.144533 2.116267 1.877333 3.925333 3.310933 3.9936 3.242667 0.136533-0.136533-0.3072-46.2848-0.7168-72.533334l-0.2048-15.121066-14.916266-10.513067c-8.192-5.802667-37.546667-26.487467-65.2288-45.9776-27.682133-19.490133-52.9408-37.307733-56.149334-39.594667l-5.802666-4.130133-0.238934-12.765867c-0.170667-7.031467-0.238933-14.779733-0.170666-17.2032l0.068266-4.437333 8.840534-5.666133 8.874666-5.700267 3.345067 2.184533c7.9872 5.188267 22.7328 13.960533 45.1584 26.897067 31.812267 18.3296 63.146667 36.7616 73.0112 42.871467 5.051733 3.1744 5.393067 3.310933 5.188267 2.4576-0.477867-2.048-0.648533-7.4752-0.273067-8.192 0.375467-0.682667-0.2048-1.092267-8.9088-6.4512-15.428267-9.489067-53.521067-33.28-66.9696-41.847467-6.929067-4.4032-17.237333-10.752-22.869333-14.062933-13.141333-7.816533-19.285333-11.5712-19.285334-11.844267 0-0.3072 8.9088-11.3664 26.965334-33.416533 8.533333-10.4448 16.827733-20.5824 18.432-22.596267l2.901333-3.652267h5.632c10.376533-0.068267 48.776533-1.297067 89.258667-2.901333l19.797333-0.785067 1.365333 1.570134c0.750933 0.853333 1.604267 1.809067 1.877334 2.1504 0.477867 0.6144 0.682667 0.6144 5.393066 0.068266 2.6624-0.3072 4.9152-0.512 4.949334-0.443733 1.092267 1.467733 8.669867 11.195733 25.873066 33.0752 11.537067 14.7456 21.230933 27.101867 21.469867 27.511467 0.375467 0.580267 0.2048 1.160533-1.262933 4.4032-2.013867 4.539733-3.720533 7.202133-5.905067 9.1136-0.887467 0.8192-6.894933 4.744533-13.346133 8.772266-6.4512 4.027733-11.8784 7.441067-12.0832 7.611734-0.580267 0.546133 5.563733-2.423467 10.9568-5.2224l5.154133-2.696534h4.573867c3.6864 0 4.744533-0.1024 5.393066-0.546133 0.4096-0.3072 5.12-3.345067 10.410667-6.7584l9.6256-6.212267 6.656 2.594134c3.652267 1.4336 8.3968 3.345067 10.5472 4.3008l3.925333 1.672533 0.2048 11.434667c0.1024 6.280533 0.238933 14.0288 0.273067 17.237333l0.034133 5.768533 2.423467-2.3552 2.389333-2.389333-0.1024-13.243733-0.1024-13.243734 1.536-0.443733c1.262933-0.375467 1.7408-0.750933 2.798934-2.286933 0.682667-1.024 1.262933-2.048 1.262933-2.286934 0.068267-0.955733-13.2096-21.162667-20.514133-31.197866-8.635733-11.946667-33.518933-45.192533-38.024534-50.824534-10.0352-12.561067-35.089067-42.7008-44.373333-53.384533-11.537067-13.312-35.976533-37.410133-46.353067-45.738667l-1.6384-1.3312 2.730667 5.4272c11.776 23.586133 31.709867 67.6864 38.673067 85.674667l1.979733 5.12-1.9456 0.238933c-1.058133 0.136533-26.385067 0.341333-56.285867 0.477867l-54.306133 0.238933-10.5472 11.093334c-25.156267 26.5216-30.242133 32.017067-37.341867 40.3456-5.870933 6.826667-9.9328 11.946667-13.2096 16.554666-1.604267 2.2528-3.003733 4.164267-3.1744 4.266667-0.136533 0.1024-3.242667 2.56-6.9632 5.461333-3.6864 2.901333-6.9632 5.495467-7.338666 5.7344-0.512 0.375467-0.750933 0.341333-1.570134-0.375466l-0.955733-0.8192 0.853333-1.160534c0.443733-0.648533 4.983467-6.792533 10.103467-13.687466 5.12-6.894933 12.8-17.442133 17.066667-23.381334 24.644267-34.5088 51.370667-68.744533 74.6496-95.505066 14.7456-16.964267 27.9552-30.071467 41.608533-41.198934l5.0176-4.130133v-14.5408c0-7.9872-0.1024-16.008533-0.2048-17.8176l-0.238933-3.2768-2.218667-0.2048c-1.2288-0.136533-2.2528-0.273067-2.286933-0.3072-0.375467-0.4096-0.887467-108.509867-0.7168-142.0288 0.136533-24.132267 0.1024-40.8576-0.068267-40.8576s-0.887467 0.7168-1.570133 1.604267z m-145.851734 183.808c0.648533 1.194667 1.911467 3.584 2.798934 5.3248l1.672533 3.1744-1.2288 1.024c-4.061867 3.310933-8.977067 14.813867-13.5168 31.470933l-1.6384 6.075733-1.297067-3.959466c-1.706667-5.12-4.7104-11.025067-11.6736-22.698667-1.570133-2.6624-2.013867-3.6864-1.7408-4.027733 0.648533-0.785067 24.746667-18.466133 25.224534-18.500267 0.1024 0 0.750933 0.955733 1.399466 2.116267zM210.397867 336.657067c7.509333 6.4512 24.8832 21.1968 38.536533 32.802133 13.653333 11.605333 24.814933 21.230933 24.746667 21.367467-0.068267 0.170667-1.774933 2.218667-3.822934 4.573866l-3.720533 4.266667-2.491733-2.286933c-1.365333-1.262933-7.441067-6.9632-13.5168-12.6976-14.404267-13.585067-24.9856-23.3472-39.867734-36.727467-6.656-5.973333-13.243733-11.946667-14.574933-13.243733l-2.491733-2.3552v-7.850667l1.7408 0.238933c1.706667 0.238933 2.1504 0.580267 15.4624 11.912534z m11.0592 62.020266c5.358933 6.109867 16.930133 19.831467 21.572266 25.6 1.570133 1.979733 4.8128 5.905067 7.168 8.704 5.495467 6.656 9.3184 11.332267 13.243734 16.247467l3.140266 3.9936v4.027733c0 8.226133 1.058133 18.773333 2.4576 24.951467l0.7168 3.140267-1.024 2.321066c-0.989867 2.2528-1.058133 2.321067-2.1504 2.218667-1.4336-0.1024-1.9456-0.512-2.218666-1.809067-0.2048-0.9216-0.989867-1.399467-9.762134-5.768533-5.256533-2.628267-9.659733-4.778667-9.796266-4.778667-0.136533 0.034133-1.467733 1.706667-2.935467 3.754667-1.501867 2.082133-2.798933 3.754667-2.901333 3.754667-0.3072 0-2.184533-2.9696-3.345067-5.290667-4.266667-8.4992-8.0896-20.445867-19.626667-61.098667-4.027733-14.267733-6.8608-26.385067-7.2704-31.402666l-0.2048-2.389334 3.9936 4.096c2.184533 2.2528 6.212267 6.621867 8.942934 9.728z m159.197866 188.074667c5.3248 5.7344 9.966933 10.615467 10.274134 10.888533 0.512 0.4096 0.580267 1.604267 0.580266 11.776v11.298134l-7.099733 4.676266c-3.8912 2.56-8.942933 5.802667-11.229867 7.236267l-4.1984 2.594133-1.399466-0.682666c-0.750933-0.4096-1.467733-0.648533-1.570134-0.546134-0.1024 0.1024-0.2048 2.013867-0.238933 4.3008 0 2.2528-0.068267 4.096-0.136533 4.096s-1.365333-1.1264-2.8672-2.491733c-1.570133-1.4336-2.9696-2.423467-3.2768-2.3552-1.8432 0.375467-11.5712 5.393067-19.7632 10.205867-6.417067 3.754667-28.023467 17.373867-29.047467 18.3296-1.160533 1.058133-3.3792 5.802667-4.027733 8.635733-0.6144 2.833067-0.648533 2.833067-5.563734 2.833067h-2.935466l-5.563734-7.68L287.061333 662.186667v-3.652267c0-2.048 0.1024-4.744533 0.238934-6.007467l0.2048-2.321066 0.989866 0.955733c0.580267 0.512 1.774933 1.8432 2.730667 2.901333l1.706667 1.979734-0.682667 0.853333-0.682667 0.887467 5.495467 7.68 5.5296 7.68 0.477867-1.1264c1.672533-3.925333 2.935467-6.417067 3.959466-7.850667 0.648533-0.887467 1.194667-1.706667 1.194667-1.809067 0-0.068267-1.1264-1.570133-2.4576-3.310933-6.485333-8.2944-15.872-24.1664-25.7024-43.349333l-3.072-6.007467 1.160533-2.3552c2.184533-4.437333 7.543467-12.151467 11.946667-17.1008 2.3552-2.628267 6.3488-5.870933 7.236267-5.870933 0.375467 0 2.935467 1.160533 5.700266 2.56 14.574933 7.3728 45.1584 27.067733 57.0368 36.6592 3.754667 3.037867 5.5296 4.881067 6.485334 6.792533 0.375467 0.7168 0.887467 1.501867 1.160533 1.706667 0.4096 0.341333 0.546133 0.273067 0.7168-0.341334 0.1024-0.443733 0.2048-5.870933 0.2048-12.0832s0.1024-18.944 0.238933-28.2624l0.2048-16.964266 0.9216 0.955733c0.512 0.512 5.290667 5.632 10.6496 11.3664z m391.509334 41.813333l-0.1024 10.4448-1.877334 2.594134c-4.369067 6.109867-11.502933 18.363733-16.042666 27.648-1.365333 2.8672-2.525867 5.358933-2.525867 5.563733 0 0.9216-0.648533 0.136533-1.3312-1.6384-2.048-5.051733-6.382933-12.629333-13.2096-23.005867l-4.1984-6.382933 1.7408-3.1744c2.935467-5.461333 11.195733-17.476267 13.038933-19.012267 0.238933-0.2048 4.744533-0.9216 9.966934-1.570133 5.256533-0.682667 10.308267-1.3312 11.229866-1.501867 0.955733-0.170667 2.082133-0.3072 2.56-0.341333l0.853334-0.034133-0.1024 10.410666z m-45.841067 20.036267c3.549867 7.714133 12.663467 31.1296 12.663467 32.529067 0 0.375467-2.935467 10.4448-6.485334 22.357333-3.584 11.912533-7.338667 24.6784-8.362666 28.330667-4.130133 14.916267-9.4208 27.272533-13.858134 32.3584-0.989867 1.092267-0.989867 1.160533-0.989866 5.563733v4.437333l-1.4336 1.706667-1.467734 1.672533v4.369067c0 4.1984-0.034133 4.437333-1.092266 6.587733-0.580267 1.194667-1.160533 2.730667-1.2288 3.413334-0.1024 0.648533-0.785067 2.1504-1.536 3.310933l-1.365334 2.116267 1.365334 3.515733c0.7168 1.911467 2.218667 5.563733 3.242666 8.0896l1.9456 4.573867-0.580266 6.519466c-0.3072 3.549867-1.024 11.639467-1.570134 17.92-1.4336 15.803733-2.082133 25.224533-2.082133 29.832534v3.8912l-4.027733 5.768533c-2.2528 3.140267-6.2464 8.8064-8.942934 12.561067-2.6624 3.754667-6.724267 9.6256-8.977066 13.038933-2.286933 3.413333-4.164267 6.178133-4.1984 6.144-0.068267-0.034133 0.068267-13.585067 0.238933-30.071467l0.3072-30.037333-1.774933-3.242667c-5.563733-10.376533-16.349867-26.385067-24.610134-36.488533-4.266667-5.256533-14.5408-16.6912-19.831466-22.084267l-4.949334-5.051733-4.1984 0.2048c-2.321067 0.136533-13.7216 0.238933-25.361066 0.273067-21.128533 0-21.162667 0-21.742934-0.7168-0.682667-0.8192-0.648533-0.546133-1.979733-13.824-0.580267-5.632-1.672533-15.837867-2.389333-22.664534-1.536-14.062933-4.949333-48.059733-5.3248-52.872533-0.1024-1.706667-0.136533-3.140267-0.034134-3.140267 0.1024 0 1.399467 0.8192 2.8672 1.8432 1.467733 0.989867 3.720533 2.4576 4.983467 3.2768l2.321067 1.467734 1.092266-1.024c4.369067-4.096 41.096533-31.197867 59.323734-43.7248l2.56-1.774934h3.242666c3.003733 0 3.3792 0.068267 5.4272 1.160534 1.2288 0.648533 5.358933 2.286933 9.216 3.618133 3.857067 1.365333 8.123733 3.003733 9.489067 3.6864l2.4576 1.194667 6.417067-1.4336c3.515733-0.785067 15.906133-3.7888 27.5456-6.656 11.639467-2.901333 21.435733-5.290667 21.777066-5.290667 0.443733-0.034133 0.955733 0.7168 1.911467 2.7648z" fill="" /><path d="M157.525333 219.648c0.7168 8.874667 2.594133 29.0816 2.696534 29.354667 0.068267 0.2048 2.116267 1.6384 4.5056 3.140266 2.423467 1.536 5.632 3.618133 7.133866 4.676267 1.501867 1.024 2.730667 1.8432 2.7648 1.809067 0.034133-0.034133 0.238933-5.12 0.477867-11.298134l0.375467-11.229866-1.6384-1.4336c-1.604267-1.4336-10.1376-10.308267-14.370134-15.018667l-2.1504-2.389333 0.2048 2.389333zM791.790933 234.769067c-13.482667 22.493867-23.210667 44.817067-25.1904 57.719466l-0.375466 2.525867 1.809066 4.1984c1.024 2.321067 1.911467 4.232533 2.013867 4.232533 0.1024 0 0.375467-1.365333 0.6144-3.037866 1.570133-11.6736 9.352533-32.119467 19.217067-50.619734 2.696533-5.051733 7.953067-14.267733 9.386666-16.520533 0.443733-0.6144 0.341333-0.8192-1.160533-2.218667-0.887467-0.853333-1.8432-1.706667-2.1504-1.9456-0.443733-0.341333-1.058133 0.477867-4.164267 5.666134zM320.341333 266.6496c-5.0176 1.809067-13.346133 11.3664-19.1488 21.947733-4.846933 8.8064-10.376533 21.742933-13.312 31.163734l-0.785066 2.4576 7.406933 4.4032c4.061867 2.389333 17.783467 10.4448 30.446933 17.851733 12.663467 7.441067 26.282667 15.428267 30.208 17.749333 3.959467 2.3552 7.202133 4.232533 7.2704 4.1984 0.2048-0.170667-2.798933-13.585067-5.085866-22.698666-7.406933-29.730133-16.145067-54.1696-24.337067-68.027734-4.539733-7.748267-8.465067-10.5472-12.663467-9.045333zM904.362667 404.514133c-1.672533 1.706667-6.5536 6.2464-10.820267 10.103467-5.563733 4.983467-7.7824 7.202133-7.7824 7.748267 0 0.375467-1.297067 9.147733-2.901333 19.490133-5.3248 34.338133-8.260267 54.715733-9.352534 65.194667-1.604267 15.0528-3.549867 47.035733-2.901333 47.581866 0.170667 0.136533 1.024 0.512 1.911467 0.853334 6.144 2.2528 16.6912 12.356267 27.4432 26.248533l2.013866 2.628267 0.238934-10.3424c0.477867-22.493867 3.208533-70.2464 4.539733-80.452267 1.4336-10.786133 4.983467-27.886933 8.738133-42.325333 0.955733-3.652267 1.911467-7.304533 2.116267-8.055467 0.443733-1.911467-0.6144-8.260267-3.003733-17.681067-1.706667-6.792533-5.8368-20.923733-6.7584-23.108266l-0.4096-1.024-3.072 3.140266zM828.6208 640.682667l-4.744533 7.133866-0.443734 7.7824c-2.1504 35.703467-5.4272 67.2768-7.953066 76.868267l-0.648534 2.525867 3.106134-0.238934c1.7408-0.1024 7.509333-0.341333 12.868266-0.546133 5.358933-0.2048 10.683733-0.443733 11.8784-0.546133l2.116267-0.2048v-6.621867l11.3664-2.1504c6.212267-1.160533 11.741867-2.218667 12.288-2.321067l0.9216-0.2048-0.682667 1.6384c-1.604267 3.720533-1.4336 7.9872 0.546134 12.868267l1.262933 3.140267-1.160533 0.887466c-0.648533 0.477867-15.735467 12.526933-33.5872 26.8288-43.656533 34.952533-59.460267 47.445333-69.870934 55.227734-2.218667 1.672533-4.027733 3.072-4.027733 3.140266 0 0.375467 12.3904-5.563733 28.535467-13.6192 13.277867-6.621867 24.132267-11.844267 24.610133-11.844266 0.170667 0 1.024 2.048 1.911467 4.5056 0.9216 2.4576 2.013867 5.256533 2.423466 6.212266l0.785067 1.774934 7.133867 2.525866c7.816533 2.7648 16.0768 5.461333 16.759466 5.461334 1.024 0 32.3584-19.592533 38.024534-23.790934 1.365333-0.989867 2.798933-2.628267 4.778666-5.4272 1.536-2.184533 4.949333-6.690133 7.5776-10.001066 5.8368-7.3728 5.666133-7.133867 5.0176-6.656-0.273067 0.2048-2.116267 1.6384-4.061866 3.208533-5.256533 4.130133-5.973333 4.573867-6.826667 4.096-0.375467-0.2048-0.955733-0.853333-1.262933-1.467733-0.7168-1.3312-0.477867-5.3248 1.7408-31.1296 1.809067-21.0944 2.389333-29.559467 3.106133-46.250667 0.8192-19.456 0.989867-31.163733 0.512-33.962667-0.546133-3.106133-2.082133-6.2464-3.7888-7.816533-0.853333-0.750933-4.676267-2.833067-10.308267-5.563733-10.1376-4.881067-34.577067-17.2032-40.6528-20.445867-2.218667-1.194667-4.130133-2.184533-4.266666-2.1504-0.136533 0-2.3552 3.208533-4.983467 7.133867zM847.018667 821.998933c-1.3312 1.194667-9.386667 8.362667-17.92 15.940267-23.6544 21.026133-32.085333 28.672-32.085334 29.0816 0 0.8192 7.816533 11.776 9.898667 13.858133 1.3312 1.365333 2.56 2.491733 2.6624 2.491734 0.238933 0 5.051733-3.515733 23.04-16.759467 10.1376-7.4752 18.1248-13.2096 23.176533-16.622933 8.157867-5.563733 13.448533-13.4144 15.4624-22.971734 0.750933-3.515733 0.6144-3.8912-0.375466-0.989866-2.1504 6.314667-6.144 13.1072-10.376534 17.544533-1.365333 1.4336-2.594133 2.594133-2.730666 2.594133-0.375467 0-3.1744-4.334933-4.471467-6.8608-2.218667-4.437333-3.310933-8.942933-3.652267-15.36l-0.238933-4.096-2.389333 2.1504z" fill="" /></svg>